<svg width="256" height="256" viewBox="0 0 256 256" fill="none" xmlns="http://www.w3.org/2000/svg">
<rect width="256" height="256" rx="76.8" fill="#0059FF"/>
<path fill-rule="evenodd" clip-rule="evenodd" d="M127.993 52.2429C122.891 52.2429 118.755 56.3792 118.755 61.4816V100.801C118.755 105.775 113.37 108.884 109.062 106.397L75.0129 86.7385C70.5941 84.1874 64.9438 85.7013 62.3926 90.1201C59.8414 94.5389 61.3554 100.189 65.7742 102.74L99.8311 122.403C104.139 124.89 104.139 131.108 99.8312 133.595L65.777 153.256C61.3583 155.807 59.8443 161.457 62.3955 165.876C64.9466 170.295 70.5969 171.809 75.0157 169.258L109.062 149.601C113.37 147.114 118.755 150.222 118.755 155.196V194.518C118.755 199.621 122.891 203.757 127.993 203.757C133.096 203.757 137.232 199.621 137.232 194.518V155.188C137.232 150.214 142.616 147.105 146.924 149.592L180.987 169.259C185.406 171.81 191.056 170.296 193.608 165.877C196.159 161.458 194.645 155.808 190.226 153.257L156.17 133.595C151.862 131.108 151.862 124.89 156.17 122.403L166.066 116.69C170.485 114.138 171.999 108.488 169.448 104.069C166.897 99.6506 161.246 98.1366 156.827 100.688L146.924 106.406C142.616 108.893 137.232 105.784 137.232 100.81V61.4816C137.232 56.3792 133.096 52.2429 127.993 52.2429ZM193.604 90.1341C196.156 94.5529 194.642 100.203 190.223 102.754L189.9 102.941C185.481 105.492 179.831 103.978 177.28 99.5592C174.728 95.1404 176.242 89.4901 180.661 86.9389L180.984 86.7526C185.403 84.2014 191.053 85.7154 193.604 90.1341Z" fill="#FCFCFC"/>
</svg>
