<svg width="16" height="16" viewBox="0 0 16 16" fill="none" xmlns="http://www.w3.org/2000/svg">
<rect width="16" height="16" rx="4.8" fill="#0059FF"/>
<path fill-rule="evenodd" clip-rule="evenodd" d="M7.99976 3.26514C7.68086 3.26514 7.42234 3.52365 7.42234 3.84255V6.30004C7.42234 6.61091 7.08581 6.80521 6.81659 6.64977L4.68849 5.42111C4.41231 5.26166 4.05917 5.35629 3.89972 5.63246C3.74027 5.90864 3.8349 6.26178 4.11107 6.42123L6.23963 7.65015C6.50885 7.80559 6.50885 8.19418 6.23963 8.34962L4.11125 9.57844C3.83507 9.73789 3.74045 10.091 3.8999 10.3672C4.05935 10.6434 4.41249 10.738 4.68866 10.5786L6.81659 9.35C7.08581 9.19456 7.42234 9.38885 7.42234 9.69973V12.1573C7.42234 12.4762 7.68086 12.7348 7.99976 12.7348C8.31866 12.7348 8.57717 12.4762 8.57717 12.1573V9.6992C8.57717 9.38832 8.9137 9.19403 9.18293 9.34947L11.3119 10.5786C11.5881 10.7381 11.9412 10.6435 12.1007 10.3673C12.2601 10.0911 12.1655 9.73796 11.8893 9.57851L9.7608 8.34962C9.49158 8.19418 9.49158 7.80559 9.7608 7.65015L10.3793 7.29305C10.6555 7.1336 10.7501 6.78046 10.5907 6.50429C10.4312 6.22811 10.0781 6.13349 9.8019 6.29294L9.18293 6.6503C8.9137 6.80574 8.57717 6.61144 8.57717 6.30057V3.84255C8.57717 3.52365 8.31866 3.26514 7.99976 3.26514ZM12.1008 5.63329C12.2603 5.90947 12.1656 6.26261 11.8895 6.42206L11.8693 6.43371C11.5931 6.59316 11.24 6.49853 11.0805 6.22236C10.9211 5.94618 11.0157 5.59304 11.2919 5.43359L11.3121 5.42194C11.5882 5.26249 11.9414 5.35712 12.1008 5.63329Z" fill="#FCFCFC"/>
</svg>
