<svg width="18" height="18" viewBox="0 0 18 18" fill="none" xmlns="http://www.w3.org/2000/svg">
<mask id="mask0_611_7244" style="mask-type:alpha" maskUnits="userSpaceOnUse" x="0" y="0" width="18" height="18">
<rect width="18" height="18" fill="#D9D9D9"/>
</mask>
<g mask="url(#mask0_611_7244)">
<path d="M8.99981 15.375C8.84031 15.375 8.70675 15.3211 8.59912 15.2132C8.49137 15.1054 8.4375 14.9719 8.4375 14.8125V9.5625H3.1875C3.02812 9.5625 2.89456 9.50856 2.78681 9.40069C2.67894 9.29281 2.625 9.15919 2.625 8.99981C2.625 8.84031 2.67894 8.70675 2.78681 8.59912C2.89456 8.49137 3.02812 8.4375 3.1875 8.4375H8.4375V3.1875C8.4375 3.02812 8.49144 2.89456 8.59931 2.78681C8.70719 2.67894 8.84081 2.625 9.00019 2.625C9.15969 2.625 9.29325 2.67894 9.40088 2.78681C9.50863 2.89456 9.5625 3.02812 9.5625 3.1875V8.4375H14.8125C14.9719 8.4375 15.1054 8.49144 15.2132 8.59931C15.3211 8.70719 15.375 8.84081 15.375 9.00019C15.375 9.15969 15.3211 9.29325 15.2132 9.40088C15.1054 9.50863 14.9719 9.5625 14.8125 9.5625H9.5625V14.8125C9.5625 14.9719 9.50856 15.1054 9.40069 15.2132C9.29281 15.3211 9.15919 15.375 8.99981 15.375Z" fill="#808996"/>
</g>
</svg>
