<svg width="48" height="48" viewBox="0 0 48 48" fill="none" xmlns="http://www.w3.org/2000/svg">
<path d="M36 3.99976H12C9.79086 3.99976 8 5.79062 8 7.99976V39.9998C8 42.209 9.79086 43.9998 12 43.9998H36C38.2092 43.9998 40 42.209 40 39.9998V7.99976C40 5.79062 38.2092 3.99976 36 3.99976Z" fill="#E8ECF1"/>
<path d="M20.98 15.9998H13C12.4477 15.9998 12 16.4475 12 16.9998V18.9998C12 19.552 12.4477 19.9998 13 19.9998H20.98C21.5322 19.9998 21.98 19.552 21.98 18.9998V16.9998C21.98 16.4475 21.5322 15.9998 20.98 15.9998Z" fill="#C0CBD9"/>
<path fill-rule="evenodd" clip-rule="evenodd" d="M30.0001 17.1717L34.5859 12.5859L37.4143 15.4144L30.0001 22.8286L24.5859 17.4144L27.4143 14.5859L30.0001 17.1717Z" fill="#0059FF"/>
<path fill-rule="evenodd" clip-rule="evenodd" d="M30.0001 29.1717L34.5859 24.5859L37.4143 27.4143L30.0001 34.8285L24.5859 29.4143L27.4143 26.5859L30.0001 29.1717Z" fill="#0059FF"/>
<path d="M20.9996 27.9998H13.0195C12.4672 27.9998 12.0195 28.4476 12.0195 28.9998V31.0598C12.0195 31.612 12.4672 32.0598 13.0195 32.0598H20.9996C21.5518 32.0598 21.9996 31.612 21.9996 31.0598V28.9998C21.9996 28.4476 21.5518 27.9998 20.9996 27.9998Z" fill="#C0CBD9"/>
</svg>
