<svg width="22" height="20" viewBox="0 0 22 20" fill="none" xmlns="http://www.w3.org/2000/svg">
<path d="M11.618 18.9918C11.2884 18.6813 11.1236 18.286 11.1236 17.8061C11.1236 17.5896 11.1648 17.3826 11.2472 17.185C11.3296 16.978 11.4532 16.7992 11.618 16.6486L16.4519 11.6516H1.62047C1.17187 11.6516 0.787349 11.4916 0.466916 11.1716C0.155639 10.8422 0 10.447 0 9.98588C0 9.52477 0.155639 9.13422 0.466916 8.81426C0.787349 8.4943 1.17187 8.32962 1.62047 8.32021H16.4519L11.618 3.32318C11.4532 3.17261 11.3296 2.99851 11.2472 2.80089C11.1648 2.59386 11.1236 2.38212 11.1236 2.16568C11.1236 1.94923 11.1648 1.7422 11.2472 1.54458C11.3296 1.33754 11.4532 1.15874 11.618 1.00817C11.7645 0.838782 11.9338 0.711738 12.1261 0.627043C12.3275 0.542348 12.5335 0.5 12.7441 0.5C12.9546 0.5 13.1561 0.542348 13.3483 0.627043C13.5497 0.711738 13.7237 0.838782 13.8702 1.00817L21.5056 8.82838C21.6704 8.97895 21.794 9.15775 21.8764 9.36478C21.9588 9.56241 22 9.76944 22 9.98588C22 10.4376 21.8352 10.8328 21.5056 11.1716L13.8702 18.9918C13.7237 19.1612 13.5497 19.2883 13.3483 19.373C13.1561 19.4577 12.9546 19.5 12.7441 19.5C12.5335 19.5 12.3275 19.4577 12.1261 19.373C11.9338 19.2883 11.7645 19.1612 11.618 18.9918Z" fill="#B4CEFB"/>
</svg>
