<svg width="22" height="20" viewBox="0 0 22 20" fill="none" xmlns="http://www.w3.org/2000/svg">
<path d="M11.6289 18.7969C11.3008 18.4961 11.1367 18.1133 11.1367 17.6484C11.1367 17.4388 11.1777 17.2383 11.2598 17.0469C11.3418 16.8464 11.4648 16.6732 11.6289 16.5273L16.4414 11.6875H1.67578C1.22917 11.6875 0.846354 11.5326 0.527344 11.2227C0.217448 10.9036 0.0625 10.5208 0.0625 10.0742C0.0625 9.6276 0.217448 9.24935 0.527344 8.93945C0.846354 8.62956 1.22917 8.47005 1.67578 8.46094H16.4414L11.6289 3.62109C11.4648 3.47526 11.3418 3.30664 11.2598 3.11523C11.1777 2.91471 11.1367 2.70964 11.1367 2.5C11.1367 2.29036 11.1777 2.08984 11.2598 1.89844C11.3418 1.69792 11.4648 1.52474 11.6289 1.37891C11.7747 1.21484 11.9434 1.0918 12.1348 1.00977C12.3353 0.927734 12.5404 0.886719 12.75 0.886719C12.9596 0.886719 13.1602 0.927734 13.3516 1.00977C13.5521 1.0918 13.7253 1.21484 13.8711 1.37891L21.4727 8.95312C21.6367 9.09896 21.7598 9.27214 21.8418 9.47266C21.9238 9.66406 21.9648 9.86458 21.9648 10.0742C21.9648 10.5117 21.8008 10.8945 21.4727 11.2227L13.8711 18.7969C13.7253 18.9609 13.5521 19.084 13.3516 19.166C13.1602 19.248 12.9596 19.2891 12.75 19.2891C12.5404 19.2891 12.3353 19.248 12.1348 19.166C11.9434 19.084 11.7747 18.9609 11.6289 18.7969Z" fill="url(#paint0_linear_7_467)"/>
<defs>
<linearGradient id="paint0_linear_7_467" x1="6" y1="-0.5" x2="18.1854" y2="18.4942" gradientUnits="userSpaceOnUse">
<stop stop-color="#45C7FF"/>
<stop offset="0.378461" stop-color="#4B8AFF"/>
<stop offset="0.728599" stop-color="#1B68F8"/>
<stop offset="1" stop-color="#A041FF"/>
</linearGradient>
</defs>
</svg>
