<svg width="24" height="24" viewBox="0 0 24 24" fill="none" xmlns="http://www.w3.org/2000/svg">
<g id="002.&#235;&#140;&#128;&#237;&#153;&#148;,&#236;&#177;&#132;&#237;&#140;&#133;">
<path id="Vector" d="M4 4H20C21.1046 4 22 4.89543 22 6V16C22 17.1046 21.1046 18 20 18H12L7 23V18H4C2.89543 18 2 17.1046 2 16V6C2 4.89543 2.89543 4 4 4Z" fill="#C0CBD9"/>
<path id="Union" fill-rule="evenodd" clip-rule="evenodd" d="M11.2798 8.60438V7.86805C11.2798 7.66461 11.4447 7.49963 11.6482 7.49963H12.7535C12.9569 7.49963 13.1219 7.66461 13.1219 7.86805V8.60438V8.97332V9.34266V9.70965L13.1219 10.0781H13.1226H13.492H13.8589H14.2283H14.5972H15.3335C15.537 10.0781 15.702 10.243 15.702 10.4465V11.5518C15.702 11.7552 15.537 11.9202 15.3335 11.9202H14.5972H14.2283H13.8589H13.492H13.1226H13.1219V12.1061V12.2899V12.6569V13.0263V13.3952V14.1315C13.1219 14.335 12.9569 14.4999 12.7535 14.4999H11.6482C11.4447 14.4999 11.2798 14.335 11.2798 14.1315V13.3952V13.0263V12.6569V12.2899V12.1061V11.9202H11.0955H10.9117H10.5447H10.1753H9.80641H9.07008C8.86661 11.9202 8.70166 11.7552 8.70166 11.5518V10.4465C8.70166 10.243 8.86661 10.0781 9.07008 10.0781H9.80641H10.1753H10.5447H10.9117H11.0955H11.2798L11.2798 9.70965V9.34266V8.97332V8.60438Z" fill="#808996"/>
</g>
</svg>
