<svg width="16" height="16" viewBox="0 0 16 16" fill="none" xmlns="http://www.w3.org/2000/svg">
<path id="arrow_forward" d="M8.80995 2.84063L8.80995 15.0302C8.80995 15.2582 8.73303 15.4491 8.57919 15.603C8.42535 15.7568 8.23442 15.8338 8.00641 15.8338C7.77839 15.8338 7.58746 15.7568 7.43362 15.603C7.27978 15.4491 7.20286 15.2582 7.20286 15.0302L7.20286 2.84063L1.66438 8.37912C1.50504 8.53846 1.31857 8.61709 1.10499 8.61502C0.891378 8.61297 0.701477 8.52883 0.535281 8.36262C0.380066 8.19642 0.299709 8.00824 0.294209 7.79808C0.288709 7.58792 0.369066 7.39974 0.535281 7.23355L7.32854 0.440288C7.42881 0.340021 7.53458 0.269277 7.64584 0.228063C7.75709 0.186848 7.87728 0.166241 8.00641 0.166241C8.13553 0.166241 8.25572 0.186848 8.36697 0.228063C8.47824 0.269277 8.584 0.340021 8.68427 0.440288L15.4775 7.23355C15.6259 7.38189 15.7018 7.5656 15.7052 7.78469C15.7086 8.00378 15.6327 8.19642 15.4775 8.36262C15.3113 8.52883 15.1204 8.61194 14.9047 8.61194C14.6891 8.61194 14.4982 8.52883 14.332 8.36262L8.80995 2.84063Z" fill="#C0CBD9"/>
</svg>
