<svg width="25" height="24" viewBox="0 0 25 24" fill="none" xmlns="http://www.w3.org/2000/svg">
<path d="M14.0137 3.80692C15.0873 2.73176 16.8279 2.73046 17.9014 3.80399L20.3946 6.29716C21.4584 7.36157 21.4683 9.08479 20.417 10.1634L11.1856 19.635C10.4796 20.3594 9.51076 20.7688 8.50005 20.7688H5.74712C4.46893 20.7686 3.4486 19.7031 3.502 18.4251L3.62017 15.6155C3.65969 14.676 4.0505 13.7849 4.7149 13.1194L14.0137 3.80692ZM21.0147 19.1946C21.4287 19.1946 21.7646 19.5303 21.7647 19.9446C21.7647 20.359 21.4288 20.6946 21.0147 20.6946H14.8936C14.4795 20.6946 14.1436 20.359 14.1436 19.9446C14.1437 19.5303 14.4796 19.1946 14.8936 19.1946H21.0147ZM5.77544 14.18C5.37682 14.5792 5.14193 15.1133 5.11822 15.677L5.00103 18.4866C4.98318 18.9127 5.32293 19.2678 5.74908 19.2679H8.50103C9.10737 19.2679 9.68871 19.0226 10.1124 18.5882L16.6436 11.886L12.3506 7.59305L5.77544 14.18ZM16.8409 4.86552C16.3529 4.37754 15.5613 4.37778 15.0733 4.86649L13.4102 6.53055L17.6915 10.8118L19.3438 9.11649C19.8216 8.62626 19.8175 7.84251 19.334 7.35868L16.8409 4.86552Z" fill="#404652"/>
</svg>
