<svg width="25" height="24" viewBox="0 0 25 24" fill="none" xmlns="http://www.w3.org/2000/svg">
<mask id="mask0_725_435" style="mask-type:alpha" maskUnits="userSpaceOnUse" x="0" y="0" width="25" height="24">
<rect x="0.5" width="24" height="24" fill="#D9D9D9"/>
</mask>
<g mask="url(#mask0_725_435)">
<path d="M12.4997 14.6615C12.3791 14.6615 12.267 14.6423 12.1631 14.6038C12.0593 14.5653 11.9606 14.4993 11.867 14.4057L7.37276 9.91151C7.23429 9.77306 7.16346 9.59902 7.16026 9.38941C7.15704 9.17979 7.22788 9.00255 7.37276 8.85768C7.51763 8.71281 7.69326 8.64038 7.89966 8.64038C8.10606 8.64038 8.28169 8.71281 8.42656 8.85768L12.4997 12.9308L16.5728 8.85768C16.7112 8.71923 16.8852 8.6484 17.0949 8.64518C17.3045 8.64198 17.4817 8.71281 17.6266 8.85768C17.7714 9.00255 17.8439 9.17819 17.8439 9.38461C17.8439 9.59101 17.7714 9.76664 17.6266 9.91151L13.1323 14.4057C13.0388 14.4993 12.94 14.5653 12.8362 14.6038C12.7324 14.6423 12.6202 14.6615 12.4997 14.6615Z" fill="#020014"/>
</g>
</svg>
