<svg width="24" height="24" viewBox="0 0 24 24" fill="none" xmlns="http://www.w3.org/2000/svg">
<mask id="mask0_214_607" style="mask-type:alpha" maskUnits="userSpaceOnUse" x="0" y="0" width="24" height="24">
<rect width="24" height="24" fill="#D9D9D9"/>
</mask>
<g mask="url(#mask0_214_607)">
<path d="M20.3713 12.7515H9.327C9.11417 12.7515 8.93592 12.6796 8.79225 12.536C8.64875 12.3925 8.577 12.2143 8.577 12.0015C8.577 11.7886 8.64875 11.6105 8.79225 11.467C8.93592 11.3233 9.11417 11.2515 9.327 11.2515H20.3713L19.0788 9.95921C18.9301 9.81038 18.8568 9.6363 18.8588 9.43696C18.8606 9.23763 18.9339 9.06038 19.0788 8.90522C19.2339 8.75022 19.4122 8.67013 19.6135 8.66496C19.8147 8.6598 19.9928 8.7348 20.148 8.88996L22.6268 11.3687C22.8076 11.5495 22.898 11.7605 22.898 12.0015C22.898 12.2425 22.8076 12.4534 22.6268 12.6342L20.148 15.113C19.9993 15.2616 19.8228 15.335 19.6183 15.3332C19.4138 15.3312 19.2339 15.2527 19.0788 15.0977C18.9339 14.9425 18.8589 14.7669 18.8538 14.5707C18.8488 14.3745 18.9238 14.1989 19.0788 14.0437L20.3713 12.7515ZM15.202 8.11696V5.30921C15.202 5.21938 15.1732 5.14563 15.1155 5.08797C15.0577 5.0303 14.9839 5.00146 14.8943 5.00146H5.30775C5.21792 5.00146 5.14417 5.0303 5.0865 5.08797C5.02883 5.14563 5 5.21938 5 5.30921V18.6937C5 18.7835 5.02883 18.8573 5.0865 18.915C5.14417 18.9726 5.21792 19.0015 5.30775 19.0015H14.8943C14.9839 19.0015 15.0577 18.9726 15.1155 18.915C15.1732 18.8573 15.202 18.7835 15.202 18.6937V15.886C15.202 15.6733 15.2738 15.4951 15.4173 15.3515C15.5609 15.208 15.7392 15.1362 15.952 15.1362C16.1648 15.1362 16.343 15.208 16.4865 15.3515C16.6302 15.4951 16.702 15.6733 16.702 15.886V18.6937C16.702 19.1924 16.5253 19.6184 16.172 19.9717C15.8188 20.3249 15.3929 20.5015 14.8943 20.5015H5.30775C4.80908 20.5015 4.38308 20.3249 4.02975 19.9717C3.67658 19.6184 3.5 19.1924 3.5 18.6937V5.30921C3.5 4.81055 3.67658 4.38455 4.02975 4.03121C4.38308 3.67805 4.80908 3.50146 5.30775 3.50146H14.8943C15.3929 3.50146 15.8188 3.67805 16.172 4.03121C16.5253 4.38455 16.702 4.81055 16.702 5.30921V8.11696C16.702 8.32963 16.6302 8.5078 16.4865 8.65146C16.343 8.79496 16.1648 8.86671 15.952 8.86671C15.7392 8.86671 15.5609 8.79496 15.4173 8.65146C15.2738 8.5078 15.202 8.32963 15.202 8.11696Z" fill="#808996"/>
</g>
</svg>
