<svg width="20" height="20" viewBox="0 0 20 20" fill="none" xmlns="http://www.w3.org/2000/svg">
<g id="009.&#234;&#179;&#181;&#236;&#156;&#160;">
<path id="Vector" d="M9.79134 11.2499C10.5968 11.2499 11.2497 10.597 11.2497 9.79159C11.2497 8.98615 10.5968 8.33325 9.79134 8.33325C8.98593 8.33325 8.33301 8.98615 8.33301 9.79159C8.33301 10.597 8.98593 11.2499 9.79134 11.2499Z" fill="#808996"/>
<path id="Vector_2" d="M9.79134 5.41667C10.5968 5.41667 11.2497 4.76375 11.2497 3.95833C11.2497 3.15292 10.5968 2.5 9.79134 2.5C8.9859 2.5 8.33301 3.15292 8.33301 3.95833C8.33301 4.76375 8.9859 5.41667 9.79134 5.41667Z" fill="#808996"/>
<path id="Vector_3" d="M9.79134 17.0834C10.5968 17.0834 11.2497 16.4305 11.2497 15.6251C11.2497 14.8196 10.5968 14.1667 9.79134 14.1667C8.9859 14.1667 8.33301 14.8196 8.33301 15.6251C8.33301 16.4305 8.9859 17.0834 9.79134 17.0834Z" fill="#808996"/>
</g>
</svg>
