<svg width="42" height="42" viewBox="0 0 42 42" fill="none" xmlns="http://www.w3.org/2000/svg">
<path d="M38.5 19.2502C38.5 9.58526 30.6649 1.75024 21 1.75024C11.335 1.75024 3.5 9.58526 3.5 19.2502C3.5 28.9151 11.335 36.7502 21 36.7502C30.6649 36.7502 38.5 28.9151 38.5 19.2502Z" fill="#BDD5FF"/>
<path d="M8.75 31.7461L3.5 36.7511H21V33.2511L8.75 31.7461Z" fill="#BDD5FF"/>
<path d="M25.375 21H13.125C12.6418 21 12.25 21.3918 12.25 21.875V23.625C12.25 24.1082 12.6418 24.5 13.125 24.5H25.375C25.8582 24.5 26.25 24.1082 26.25 23.625V21.875C26.25 21.3918 25.8582 21 25.375 21Z" fill="white"/>
<path d="M28.875 13.9998H13.125C12.6418 13.9998 12.25 14.3915 12.25 14.8748V16.6248C12.25 17.108 12.6418 17.4998 13.125 17.4998H28.875C29.3582 17.4998 29.75 17.108 29.75 16.6248V14.8748C29.75 14.3915 29.3582 13.9998 28.875 13.9998Z" fill="white"/>
</svg>
