<svg width="42" height="42" viewBox="0 0 42 42" fill="none" xmlns="http://www.w3.org/2000/svg">
<path d="M7 10.5H14V24.5H7C6.07175 24.5 5.18156 24.1313 4.52518 23.4748C3.86879 22.8184 3.5 21.9282 3.5 21V14C3.5 13.0717 3.86879 12.1815 4.52518 11.5251C5.18156 10.8687 6.07175 10.5 7 10.5Z" fill="#0059FF"/>
<path d="M10.9375 24.5H6.5625V36.75H10.9375V24.5Z" fill="#0059FF"/>
<path d="M33.25 12.25C34.6423 12.25 35.9777 12.8031 36.9623 13.7877C37.9468 14.7723 38.5 16.1076 38.5 17.5C38.5 18.8923 37.9468 20.2277 36.9623 21.2123C35.9777 22.1968 34.6423 22.75 33.25 22.75V12.25Z" fill="#0059FF"/>
<path d="M32.0075 32.7055L14 24.5155V10.5155L32.0075 2.41295C32.1403 2.35147 32.2864 2.32431 32.4324 2.33392C32.5785 2.34353 32.7197 2.3896 32.8435 2.46797C32.967 2.54632 33.069 2.65445 33.1401 2.78241C33.2111 2.91039 33.2489 3.05411 33.25 3.20048V31.988C33.2379 32.1284 33.1921 32.2637 33.1165 32.3825C33.0409 32.5013 32.9378 32.6002 32.8158 32.6707C32.6938 32.7411 32.5566 32.781 32.4159 32.7871C32.2752 32.793 32.1351 32.7652 32.0075 32.7055Z" fill="#BDD5FF"/>
</svg>
