<svg width="76" height="75" viewBox="0 0 76 75" fill="none" xmlns="http://www.w3.org/2000/svg">
<g clip-path="url(#clip0_811_17200)">
<path d="M57.25 6.74973H19.75C16.2982 6.74973 13.5 9.54794 13.5 12.9997V62.9997C13.5 66.4516 16.2982 69.2497 19.75 69.2497H57.25C60.7019 69.2497 63.5 66.4516 63.5 62.9997V12.9997C63.5 9.54794 60.7019 6.74973 57.25 6.74973Z" fill="#E8ECF1"/>
<path d="M33.7812 25.4997H21.3125C20.4496 25.4997 19.75 26.1993 19.75 27.0622V30.1872C19.75 31.0502 20.4496 31.7497 21.3125 31.7497H33.7812C34.6441 31.7497 35.3437 31.0502 35.3437 30.1872V27.0622C35.3437 26.1993 34.6441 25.4997 33.7812 25.4997Z" fill="#C0CBD9"/>
<path fill-rule="evenodd" clip-rule="evenodd" d="M47.8757 27.3308L55.041 20.1655L59.4604 24.585L47.8757 36.1696L39.416 27.71L43.8354 23.2905L47.8757 27.3308Z" fill="#0059FF"/>
<path fill-rule="evenodd" clip-rule="evenodd" d="M47.8757 46.0808L55.041 38.9155L59.4604 43.3349L47.8757 54.9196L39.416 46.4599L43.8354 42.0405L47.8757 46.0808Z" fill="#0059FF"/>
<path d="M33.8126 44.2497H21.3437C20.4808 44.2497 19.7812 44.9494 19.7812 45.8122V49.031C19.7812 49.8938 20.4808 50.5935 21.3437 50.5935H33.8126C34.6754 50.5935 35.3751 49.8938 35.3751 49.031V45.8122C35.3751 44.9494 34.6754 44.2497 33.8126 44.2497Z" fill="#C0CBD9"/>
</g>
<defs>
<clipPath id="clip0_811_17200">
<rect width="75" height="75" fill="white" transform="translate(0.5)"/>
</clipPath>
</defs>
</svg>
