<svg width="111" height="40" viewBox="0 0 111 40" fill="none" xmlns="http://www.w3.org/2000/svg">
<g id="logoText">
<path id="Vector" d="M102.374 0.787109H110.141V38.7838H102.374V0.787109Z" fill="#2E3034"/>
<path id="Vector_2" d="M74.334 0.787109H82.1013V31.4888H98.2131V38.7838H74.334V0.787109Z" fill="#2E3034"/>
<path id="Vector_3" d="M50.6498 39.5187C46.9236 39.5187 43.5385 38.6615 40.4946 36.9471C37.4682 35.2152 35.089 32.8447 33.3571 29.8358C31.6252 26.8269 30.7593 23.4768 30.7593 19.7856C30.7593 16.0944 31.6252 12.7443 33.3571 9.73535C35.089 6.7264 37.4682 4.36473 40.4946 2.65033C43.5385 0.918437 46.9236 0.0524902 50.6498 0.0524902C54.376 0.0524902 57.7523 0.918437 60.7788 2.65033C63.8052 4.36473 66.1844 6.7264 67.9163 9.73535C69.6656 12.7443 70.5403 16.0944 70.5403 19.7856C70.5403 23.4768 69.6656 26.8269 67.9163 29.8358C66.1844 32.8447 63.8052 35.2152 60.7788 36.9471C57.7523 38.6615 54.376 39.5187 50.6498 39.5187ZM50.6498 32.1712C52.959 32.1712 55.032 31.6464 56.8689 30.5968C58.7057 29.5297 60.1402 28.0602 61.1724 26.1883C62.2045 24.299 62.7206 22.1647 62.7206 19.7856C62.7206 17.4064 62.2045 15.2809 61.1724 13.4091C60.1402 11.5197 58.7057 10.0502 56.8689 9.0006C55.032 7.93348 52.959 7.39991 50.6498 7.39991C48.3231 7.39991 46.2414 7.93348 44.4045 9.0006C42.5676 10.0502 41.1331 11.5197 40.101 13.4091C39.0864 15.2809 38.579 17.4064 38.579 19.7856C38.579 22.1647 39.0864 24.299 40.101 26.1883C41.1331 28.0602 42.5676 29.5297 44.4045 30.5968C46.2414 31.6464 48.3231 32.1712 50.6498 32.1712Z" fill="#2E3034"/>
<path id="Vector_4" d="M0.725098 0.787109H13.7405C16.592 0.787109 19.1199 1.32067 21.3241 2.3878C23.5458 3.43743 25.269 4.91566 26.4936 6.82249C27.7181 8.71183 28.3304 10.8811 28.3304 13.3302C28.3304 15.7968 27.7181 17.9836 26.4936 19.8904C25.269 21.7972 23.5458 23.2842 21.3241 24.3514C19.1199 25.401 16.592 25.9258 13.7405 25.9258H8.49238V38.7838H0.725098V0.787109ZM13.8455 18.8408C15.9273 18.8408 17.5542 18.351 18.7263 17.3713C19.9159 16.3916 20.5107 15.0446 20.5107 13.3302C20.5107 11.6158 19.9159 10.2775 18.7263 9.31537C17.5542 8.35321 15.9273 7.87213 13.8455 7.87213H8.49238V18.8408H13.8455Z" fill="#2E3034"/>
</g>
</svg>
