<svg width="114" height="36" viewBox="0 0 114 36" fill="none" xmlns="http://www.w3.org/2000/svg">
<rect width="36" height="36" rx="10.8" fill="#0059FF"/>
<path fill-rule="evenodd" clip-rule="evenodd" d="M17.999 7.34668C17.2814 7.34668 16.6998 7.92835 16.6998 8.64587V14.1752C16.6998 14.8747 15.9426 15.3118 15.3368 14.9621L10.5486 12.1976C9.92721 11.8389 9.13264 12.0518 8.77388 12.6732C8.41512 13.2946 8.62803 14.0891 9.24942 14.4479L14.0387 17.213C14.6444 17.5627 14.6444 18.437 14.0387 18.7868L9.24982 21.5516C8.62843 21.9104 8.41552 22.7049 8.77429 23.3263C9.13305 23.9477 9.92762 24.1606 10.549 23.8019L15.3368 21.0376C15.9426 20.6879 16.6998 21.125 16.6998 21.8245V27.3542C16.6998 28.0717 17.2814 28.6533 17.999 28.6533C18.7165 28.6533 19.2982 28.0717 19.2982 27.3542V21.8233C19.2982 21.1239 20.0553 20.6867 20.6611 21.0364L25.4513 23.802C26.0727 24.1608 26.8672 23.9479 27.226 23.3265C27.5848 22.7051 27.3719 21.9105 26.7505 21.5518L21.9613 18.7868C21.3556 18.437 21.3556 17.5627 21.9613 17.213L23.353 16.4095C23.9744 16.0507 24.1873 15.2562 23.8285 14.6348C23.4697 14.0134 22.6752 13.8005 22.0538 14.1592L20.6611 14.9633C20.0553 15.313 19.2982 14.8759 19.2982 14.1764V8.64587C19.2982 7.92835 18.7165 7.34668 17.999 7.34668ZM27.2259 12.6752C27.5846 13.2965 27.3717 14.0911 26.7503 14.4499L26.7049 14.4761C26.0835 14.8348 25.289 14.6219 24.9302 14.0005C24.5715 13.3792 24.7844 12.5846 25.4057 12.2258L25.4511 12.1996C26.0725 11.8409 26.8671 12.0538 27.2259 12.6752Z" fill="#FCFCFC"/>
<path d="M109.513 7.02527H114V28.9747H109.513V7.02527Z" fill="#2E3034"/>
<path d="M92.3838 7.02527H96.8707V24.7607H106.178V28.9747H92.3838V7.02527Z" fill="#2E3034"/>
<path d="M77.7714 29.3992C75.6189 29.3992 73.6634 28.904 71.905 27.9136C70.1568 26.9132 68.7824 25.5439 67.7819 23.8057C66.7815 22.0675 66.2812 20.1323 66.2812 18C66.2812 15.8677 66.7815 13.9325 67.7819 12.1943C68.7824 10.4561 70.1568 9.09187 71.905 8.10152C73.6634 7.10106 75.6189 6.60083 77.7714 6.60083C79.9239 6.60083 81.8743 7.10106 83.6225 8.10152C85.3708 9.09187 86.7452 10.4561 87.7456 12.1943C88.7562 13.9325 89.2615 15.8677 89.2615 18C89.2615 20.1323 88.7562 22.0675 87.7456 23.8057C86.7452 25.5439 85.3708 26.9132 83.6225 27.9136C81.8743 28.904 79.9239 29.3992 77.7714 29.3992ZM77.7714 25.1548C79.1053 25.1548 80.3028 24.8516 81.3639 24.2453C82.425 23.6288 83.2537 22.78 83.8499 21.6987C84.4462 20.6073 84.7443 19.3744 84.7443 18C84.7443 16.6256 84.4462 15.3978 83.8499 14.3165C83.2537 13.2251 82.425 12.3762 81.3639 11.7699C80.3028 11.1534 79.1053 10.8452 77.7714 10.8452C76.4273 10.8452 75.2247 11.1534 74.1637 11.7699C73.1026 12.3762 72.2739 13.2251 71.6777 14.3165C71.0915 15.3978 70.7985 16.6256 70.7985 18C70.7985 19.3744 71.0915 20.6073 71.6777 21.6987C72.2739 22.78 73.1026 23.6288 74.1637 24.2453C75.2247 24.8516 76.4273 25.1548 77.7714 25.1548Z" fill="#2E3034"/>
<path d="M48 7.02527H55.5186C57.1658 7.02527 58.6261 7.33349 59.8994 7.94994C61.1828 8.55627 62.1782 9.4102 62.8856 10.5117C63.593 11.6031 63.9467 12.8562 63.9467 14.271C63.9467 15.6959 63.593 16.9591 62.8856 18.0606C62.1782 19.1622 61.1828 20.0211 59.8994 20.6376C58.6261 21.2439 57.1658 21.5471 55.5186 21.5471H52.4869V28.9747H48V7.02527ZM55.5792 17.4543C56.7818 17.4543 57.7216 17.1713 58.3987 16.6054C59.0859 16.0395 59.4295 15.2614 59.4295 14.271C59.4295 13.2807 59.0859 12.5076 58.3987 11.9518C57.7216 11.396 56.7818 11.1181 55.5792 11.1181H52.4869V17.4543H55.5792Z" fill="#2E3034"/>
</svg>
