<svg width="126" height="48" viewBox="0 0 126 48" fill="none" xmlns="http://www.w3.org/2000/svg">
<path d="M116.909 2.51953H125.009V45.4795H116.909V2.51953Z" fill="#2E3034"/>
<path fill-rule="evenodd" clip-rule="evenodd" d="M116.909 2.51992V45.4799H125.009V2.51992H116.909ZM116.309 1.91992H125.609V46.0799H116.309V1.91992Z" fill="#2E3034"/>
<path d="M84.8584 2.51953H92.9584V37.7995H111.138V45.4795H84.8584V2.51953Z" fill="#2E3034"/>
<path fill-rule="evenodd" clip-rule="evenodd" d="M84.8578 2.51992V45.4799H111.138V37.7999H92.9578V2.51992H84.8578ZM93.5578 37.1999V1.91992H84.2578V46.0799H111.738V37.1999H93.5578Z" fill="#2E3034"/>
<path d="M55.8619 46.4396C52.6619 46.4396 49.6819 45.8596 46.9219 44.6996C44.2019 43.5396 41.8419 41.9596 39.8419 39.9596C37.8419 37.9196 36.2619 35.5396 35.1019 32.8196C33.9819 30.0596 33.4219 27.1196 33.4219 23.9996C33.4219 20.8796 33.9819 17.9596 35.1019 15.2396C36.2619 12.4796 37.8419 10.0996 39.8419 8.09957C41.8419 6.05957 44.2019 4.45957 46.9219 3.29957C49.6819 2.13957 52.6619 1.55957 55.8619 1.55957C59.0619 1.55957 62.0219 2.13957 64.7419 3.29957C67.5019 4.45957 69.8819 6.05957 71.8819 8.09957C73.8819 10.0996 75.4419 12.4796 76.5619 15.2396C77.7219 17.9596 78.3019 20.8796 78.3019 23.9996C78.3019 27.1196 77.7219 30.0596 76.5619 32.8196C75.4419 35.5396 73.8819 37.9196 71.8819 39.9596C69.8819 41.9596 67.5019 43.5396 64.7419 44.6996C62.0219 45.8596 59.0619 46.4396 55.8619 46.4396ZM55.8619 38.7596C57.8619 38.7596 59.7219 38.3996 61.4419 37.6796C63.2019 36.9596 64.7219 35.9596 66.0019 34.6796C67.3219 33.3996 68.3419 31.8596 69.0619 30.0596C69.8219 28.2196 70.2019 26.1996 70.2019 23.9996C70.2019 21.7996 69.8219 19.7996 69.0619 17.9996C68.3419 16.1596 67.3219 14.5996 66.0019 13.3196C64.7219 12.0396 63.2019 11.0396 61.4419 10.3196C59.7219 9.59957 57.8619 9.23957 55.8619 9.23957C53.8619 9.23957 51.9819 9.59957 50.2219 10.3196C48.5019 11.0396 46.9819 12.0396 45.6619 13.3196C44.3819 14.5996 43.3619 16.1596 42.6019 17.9996C41.8819 19.7996 41.5219 21.7996 41.5219 23.9996C41.5219 26.1996 41.8819 28.2196 42.6019 30.0596C43.3619 31.8596 44.3819 33.3996 45.6619 34.6796C46.9819 35.9596 48.5019 36.9596 50.2219 37.6796C51.9819 38.3996 53.8619 38.7596 55.8619 38.7596Z" fill="#2E3034"/>
<path fill-rule="evenodd" clip-rule="evenodd" d="M46.6898 45.2531L46.6869 45.2519C43.8996 44.0632 41.4747 42.4409 39.418 40.3842L39.4138 40.38C37.3597 38.2848 35.7386 35.8416 34.5504 33.0553L34.5462 33.0456L34.5463 33.0456C33.3958 30.2105 32.8223 27.1936 32.8223 24C32.8223 20.8064 33.3958 17.8083 34.5475 15.0115L34.5491 15.0075C35.7371 12.1811 37.3587 9.73557 39.4158 7.67788C41.4724 5.58069 43.898 3.93744 46.6869 2.74806L46.6898 2.74682C49.5284 1.55381 52.588 0.959961 55.8623 0.959961C59.136 0.959961 62.1764 1.55361 64.9764 2.74751C67.8047 3.93646 70.251 5.57959 72.3087 7.67788C74.3662 9.73593 75.9682 12.1821 77.1162 15.0093C78.3083 17.8064 78.9023 20.8054 78.9023 24C78.9023 27.1954 78.308 30.214 77.1165 33.0499C75.968 35.8385 74.366 38.2836 72.3107 40.38L72.3066 40.3842C70.2489 42.4419 67.8033 44.064 64.9767 45.2523C62.1766 46.4463 59.1361 47.04 55.8623 47.04C52.588 47.04 49.5284 46.4461 46.6898 45.2531ZM76.5623 32.82C77.7223 30.06 78.3023 27.12 78.3023 24C78.3023 20.88 77.7223 17.96 76.5623 15.24C75.4423 12.48 73.8823 10.1 71.8823 8.09996C69.8823 6.05996 67.5023 4.45996 64.7423 3.29996C62.0223 2.13996 59.0623 1.55996 55.8623 1.55996C52.6623 1.55996 49.6823 2.13996 46.9223 3.29996C44.2023 4.45996 41.8423 6.05996 39.8423 8.09996C37.8423 10.1 36.2623 12.48 35.1023 15.24C33.9823 17.96 33.4223 20.88 33.4223 24C33.4223 27.12 33.9823 30.06 35.1023 32.82C36.2623 35.54 37.8423 37.92 39.8423 39.96C41.8423 41.96 44.2023 43.54 46.9223 44.7C49.6823 45.86 52.6623 46.44 55.8623 46.44C59.0623 46.44 62.0223 45.86 64.7423 44.7C67.5023 43.54 69.8823 41.96 71.8823 39.96C73.8823 37.92 75.4423 35.54 76.5623 32.82ZM61.2106 37.1265L61.2151 37.1246C62.9051 36.4333 64.3572 35.4765 65.578 34.2557L65.5845 34.2492L65.5846 34.2492C66.8407 33.0311 67.8148 31.5631 68.5052 29.8371L68.5077 29.8309C69.2347 28.0708 69.6023 26.1297 69.6023 24C69.6023 21.8701 69.2346 19.9507 68.5095 18.2333L68.5064 18.226L68.5035 18.2186C67.8125 16.4525 66.8384 14.9665 65.5846 13.7507L65.578 13.7443L65.578 13.7442C64.3572 12.5234 62.9051 11.5667 61.2151 10.8753L61.2106 10.8734C59.5692 10.1863 57.7886 9.83996 55.8623 9.83996C53.9369 9.83996 52.1352 10.186 50.4516 10.8744C48.8022 11.5652 47.3474 12.5225 46.0833 13.7475C44.8667 14.965 43.8902 16.4545 43.1581 18.2259C42.4708 19.9453 42.1223 21.8674 42.1223 24C42.1223 26.1307 42.4702 28.0731 43.1581 29.834C43.8895 31.5637 44.8655 33.0338 46.0834 34.2525C47.3475 35.4775 48.8023 36.4348 50.4518 37.1256C52.1353 37.8139 53.937 38.16 55.8623 38.16C57.7886 38.16 59.5692 37.8136 61.2106 37.1265ZM42.6023 18C43.3623 16.16 44.3823 14.6 45.6623 13.32C46.9823 12.04 48.5023 11.04 50.2223 10.32C51.9823 9.59996 53.8623 9.23996 55.8623 9.23996C57.8623 9.23996 59.7223 9.59996 61.4423 10.32C63.2023 11.04 64.7223 12.04 66.0023 13.32C67.3223 14.6 68.3423 16.16 69.0623 18C69.8223 19.8 70.2023 21.8 70.2023 24C70.2023 26.2 69.8223 28.22 69.0623 30.06C68.3423 31.86 67.3223 33.4 66.0023 34.68C64.7223 35.96 63.2023 36.96 61.4423 37.68C59.7223 38.4 57.8623 38.76 55.8623 38.76C53.8623 38.76 51.9823 38.4 50.2223 37.68C48.5023 36.96 46.9823 35.96 45.6623 34.68C44.3823 33.4 43.3623 31.86 42.6023 30.06C41.8823 28.22 41.5223 26.2 41.5223 24C41.5223 21.8 41.8823 19.8 42.6023 18Z" fill="#2E3034"/>
<path d="M0.600586 45.4795V2.51953H15.7206C17.7606 2.51953 19.6606 2.85953 21.4206 3.53953C23.2206 4.17953 24.7806 5.09953 26.1006 6.29953C27.4206 7.49953 28.4606 8.93953 29.2206 10.6195C29.9806 12.2595 30.3606 14.0795 30.3606 16.0795C30.3606 18.1195 29.9806 19.9795 29.2206 21.6595C28.4606 23.2995 27.4206 24.7195 26.1006 25.9195C24.7806 27.1195 23.2206 28.0595 21.4206 28.7395C19.6606 29.3795 17.7606 29.6995 15.7206 29.6995H8.70059V45.4795H0.600586ZM15.8406 22.0195C17.9606 22.0195 19.5606 21.4195 20.6406 20.2195C21.7206 19.0195 22.2606 17.6395 22.2606 16.0795C22.2606 15.3195 22.1206 14.5795 21.8406 13.8595C21.6006 13.1395 21.2006 12.5195 20.6406 11.9995C20.1206 11.4395 19.4606 10.9995 18.6606 10.6795C17.8606 10.3595 16.9206 10.1995 15.8406 10.1995H8.70059V22.0195H15.8406Z" fill="#2E3034"/>
<path fill-rule="evenodd" clip-rule="evenodd" d="M0.6 45.4799H8.7V29.6999H15.72C17.76 29.6999 19.66 29.3799 21.42 28.7399C23.22 28.0599 24.78 27.1199 26.1 25.9199C27.42 24.7199 28.46 23.2999 29.22 21.6599C29.98 19.9799 30.36 18.1199 30.36 16.0799C30.36 14.0799 29.98 12.2599 29.22 10.6199C28.46 8.93992 27.42 7.49992 26.1 6.29992C24.78 5.09992 23.22 4.17992 21.42 3.53992C19.66 2.85992 17.76 2.51992 15.72 2.51992H0.6V45.4799ZM21.6287 2.97732C19.7964 2.27053 17.825 1.91992 15.72 1.91992H0V46.0799H9.3V30.2999H15.72C17.8237 30.2999 19.7937 29.9697 21.625 29.3038L21.632 29.3012C23.4971 28.5966 25.1234 27.6186 26.5036 26.3639C27.8837 25.1093 28.9712 23.6239 29.7644 21.9122L29.7667 21.9072C30.5654 20.1416 30.96 18.1961 30.96 16.0799C30.96 14.0032 30.5652 12.0968 29.7657 10.3704C28.9731 8.61927 27.8857 7.11239 26.5036 5.85596C25.1226 4.60049 23.495 3.64194 21.6287 2.97732ZM20.64 20.2199C19.56 21.4199 17.96 22.0199 15.84 22.0199H8.7V10.1999H15.84C16.92 10.1999 17.86 10.3599 18.66 10.6799C19.46 10.9999 20.12 11.4399 20.64 11.9999C21.2 12.5199 21.6 13.1399 21.84 13.8599C22.12 14.5799 22.26 15.3199 22.26 16.0799C22.26 17.6399 21.72 19.0199 20.64 20.2199ZM9.3 10.7999H15.84C16.8623 10.7999 17.7235 10.9515 18.4372 11.237C19.1653 11.5283 19.748 11.9211 20.2003 12.4082L20.2154 12.4245L20.2317 12.4396C20.7185 12.8916 21.0629 13.4258 21.2708 14.0497L21.2755 14.0636L21.2808 14.0774C21.5343 14.7292 21.66 15.3956 21.66 16.0799C21.66 17.4861 21.1787 18.7245 20.194 19.8185C19.2607 20.8556 17.8462 21.4199 15.84 21.4199H9.3V10.7999Z" fill="#2E3034"/>
</svg>
