<svg width="153" height="153" viewBox="0 0 153 153" fill="none" xmlns="http://www.w3.org/2000/svg">
<g id="Frame 1437256106">
<path id="Union" fill-rule="evenodd" clip-rule="evenodd" d="M76.1569 4.5C71.3735 4.5 67.4958 8.37774 67.4958 13.1612V46.9117C67.4958 52.9568 60.9517 56.735 55.7165 53.7124L26.4935 36.8405C22.3509 34.4488 17.0538 35.8681 14.6621 40.0107C12.2704 44.1533 13.6898 49.4503 17.8323 51.8421L47.0622 68.718C52.2975 71.7405 52.2975 79.2969 47.0622 82.3194L17.8318 99.1956C13.6892 101.587 12.2699 106.884 14.6616 111.027C17.0533 115.17 22.3504 116.589 26.4929 114.197L55.7165 97.325C60.9517 94.3024 67.4958 98.0806 67.4958 104.126V137.882C67.4958 142.665 71.3735 146.543 76.1569 146.543C80.9403 146.543 84.8181 142.665 84.8181 137.882V104.118C84.8181 98.0727 91.3621 94.2945 96.5973 97.317L125.844 114.202C129.986 116.594 135.283 115.175 137.675 111.032C140.067 106.89 138.647 101.593 134.505 99.2008L105.265 82.3194C100.03 79.2969 100.03 71.7405 105.265 68.7179L111.852 64.9152C115.994 62.5235 117.414 57.2264 115.022 53.0839C112.63 48.9413 107.333 47.522 103.191 49.9137L96.5973 53.7204C91.3621 56.7429 84.8181 52.9647 84.8181 46.9196V13.1612C84.8181 8.37773 80.9403 4.5 76.1569 4.5ZM137.673 40.0283C140.065 44.1708 138.646 49.4679 134.503 51.8596L134.2 52.0344C130.058 54.4261 124.761 53.0067 122.369 48.8642C119.977 44.7216 121.397 39.4245 125.539 37.0328L125.842 36.8581C129.985 34.4664 135.282 35.8857 137.673 40.0283Z" fill="url(#paint0_linear_7_470)"/>
</g>
<defs>
<linearGradient id="paint0_linear_7_470" x1="43.8748" y1="27" x2="104.625" y2="131.625" gradientUnits="userSpaceOnUse">
<stop stop-color="#00B3FF"/>
<stop offset="0.378461" stop-color="#0059FF"/>
<stop offset="0.728599" stop-color="#003599"/>
<stop offset="1" stop-color="#4D0099"/>
</linearGradient>
</defs>
</svg>
