<svg width="72" height="61" viewBox="0 0 72 61" fill="none" xmlns="http://www.w3.org/2000/svg">
<g clip-path="url(#clip0_650_263)">
<path d="M31.2881 -0.000366211C40.853 -0.000288875 48.6165 7.70481 48.7139 17.2467C50.0681 16.953 51.4739 16.7975 52.916 16.7975C63.8172 16.7975 72.6552 25.6346 72.6553 36.5358C72.6553 47.2965 64.044 56.0453 53.3369 56.2692V56.275H17.6396V56.2184C7.77273 55.4683 0.000137562 47.2246 0 37.1656C0 28.4142 5.88306 21.0362 13.9102 18.7721C13.8763 18.3286 13.8594 17.8805 13.8594 17.4283C13.8594 7.80275 21.6625 -0.000366211 31.2881 -0.000366211Z" fill="#B4CEFB"/>
<path d="M50.7576 42.0455H41.9412V60.524H31.0213V42.0455H22.2L36.4793 25.6666L50.7576 42.0455Z" fill="#3180FF"/>
</g>
<defs>
<clipPath id="clip0_650_263">
<rect width="72" height="61" fill="white"/>
</clipPath>
</defs>
</svg>
