<svg width="60" height="60" viewBox="0 0 60 60" fill="none" xmlns="http://www.w3.org/2000/svg">
<g id="Frame 1437256106">
<path id="Union" fill-rule="evenodd" clip-rule="evenodd" d="M29.8077 2.21655C27.9618 2.21655 26.4655 3.7129 26.4655 5.55874V18.5824C26.4655 20.9151 23.9403 22.3731 21.9201 21.2067L10.6435 14.6962C9.04496 13.7733 7.00091 14.321 6.07799 15.9195C5.15507 17.518 5.70277 19.5621 7.30131 20.485L18.5806 26.9971C20.6008 28.1635 20.6008 31.0793 18.5806 32.2457L7.30104 38.7579C5.7025 39.6809 5.1548 41.7249 6.07772 43.3234C7.00064 44.922 9.04469 45.4697 10.6432 44.5468L21.9201 38.0361C23.9403 36.8697 26.4655 38.3277 26.4655 40.6604V53.6862C26.4655 55.5321 27.9618 57.0284 29.8077 57.0284C31.6535 57.0284 33.1499 55.5321 33.1499 53.6862V40.6573C33.1499 38.3246 35.6751 36.8666 37.6953 38.033L48.9809 44.5488C50.5795 45.4717 52.6235 44.924 53.5465 43.3254C54.4694 41.7269 53.9217 39.6828 52.3231 38.7599L41.0401 32.2457C39.02 31.0793 39.02 28.1635 41.0401 26.9971L43.5817 25.5297C45.1803 24.6068 45.728 22.5628 44.805 20.9642C43.8821 19.3657 41.8381 18.818 40.2395 19.7409L37.6953 21.2098C35.6751 22.3762 33.1499 20.9182 33.1499 18.5855V5.55874C33.1499 3.7129 31.6535 2.21655 29.8077 2.21655ZM53.5457 15.9263C54.4687 17.5248 53.921 19.5689 52.3224 20.4918L52.2056 20.5592C50.6071 21.4821 48.563 20.9344 47.6401 19.3359C46.7172 17.7374 47.2649 15.6933 48.8634 14.7704L48.9802 14.703C50.5788 13.78 52.6228 14.3277 53.5457 15.9263Z" fill="url(#paint0_linear_7_686)"/>
</g>
<defs>
<linearGradient id="paint0_linear_7_686" x1="17.3506" y1="10.8989" x2="40.7929" y2="51.2718" gradientUnits="userSpaceOnUse">
<stop stop-color="#00B3FF"/>
<stop offset="0.378461" stop-color="#0059FF"/>
<stop offset="0.728599" stop-color="#003599"/>
<stop offset="1" stop-color="#4D0099"/>
</linearGradient>
</defs>
</svg>
