<svg width="60" height="22" viewBox="0 0 60 22" fill="none" xmlns="http://www.w3.org/2000/svg">
<g id="POLI">
<path id="Vector" d="M55.4805 1.10156H59.5273V20.8984H55.4805V1.10156Z" fill="#2E3034"/>
<path id="Vector_2" d="M40.0312 1.10156H44.0781V17.0977H52.4727V20.8984H40.0312V1.10156Z" fill="#2E3034"/>
<path id="Vector_3" d="M26.8516 21.2812C24.9102 21.2812 23.1465 20.8346 21.5605 19.9414C19.9837 19.0391 18.7441 17.804 17.8418 16.2363C16.9395 14.6686 16.4883 12.9232 16.4883 11C16.4883 9.07682 16.9395 7.33138 17.8418 5.76367C18.7441 4.19596 19.9837 2.96549 21.5605 2.07227C23.1465 1.16992 24.9102 0.71875 26.8516 0.71875C28.793 0.71875 30.5521 1.16992 32.1289 2.07227C33.7057 2.96549 34.9453 4.19596 35.8477 5.76367C36.7591 7.33138 37.2148 9.07682 37.2148 11C37.2148 12.9232 36.7591 14.6686 35.8477 16.2363C34.9453 17.804 33.7057 19.0391 32.1289 19.9414C30.5521 20.8346 28.793 21.2812 26.8516 21.2812ZM26.8516 17.4531C28.0547 17.4531 29.1348 17.1797 30.0918 16.6328C31.0488 16.0768 31.7962 15.3112 32.334 14.3359C32.8717 13.3516 33.1406 12.2396 33.1406 11C33.1406 9.76042 32.8717 8.65299 32.334 7.67773C31.7962 6.69336 31.0488 5.92773 30.0918 5.38086C29.1348 4.82487 28.0547 4.54688 26.8516 4.54688C25.6393 4.54688 24.5547 4.82487 23.5977 5.38086C22.6406 5.92773 21.8932 6.69336 21.3555 7.67773C20.8268 8.65299 20.5625 9.76042 20.5625 11C20.5625 12.2396 20.8268 13.3516 21.3555 14.3359C21.8932 15.3112 22.6406 16.0768 23.5977 16.6328C24.5547 17.1797 25.6393 17.4531 26.8516 17.4531Z" fill="#2E3034"/>
<path id="Vector_4" d="M0 1.10156H6.78125C8.26693 1.10156 9.58398 1.37956 10.7324 1.93555C11.89 2.48242 12.7878 3.2526 13.4258 4.24609C14.0638 5.23047 14.3828 6.36068 14.3828 7.63672C14.3828 8.92188 14.0638 10.0612 13.4258 11.0547C12.7878 12.0482 11.89 12.8229 10.7324 13.3789C9.58398 13.9258 8.26693 14.1992 6.78125 14.1992H4.04688V20.8984H0V1.10156ZM6.83594 10.5078C7.92057 10.5078 8.76823 10.2526 9.37891 9.74219C9.9987 9.23177 10.3086 8.52995 10.3086 7.63672C10.3086 6.74349 9.9987 6.04622 9.37891 5.54492C8.76823 5.04362 7.92057 4.79297 6.83594 4.79297H4.04688V10.5078H6.83594Z" fill="#2E3034"/>
</g>
</svg>
