<svg width="69" height="22" viewBox="0 0 69 22" fill="none" xmlns="http://www.w3.org/2000/svg">
<rect y="0.105225" width="21.7895" height="21.7895" rx="6.53684" fill="#0059FF"/>
<path d="M10.8935 4.552C11.3278 4.552 11.6805 4.90393 11.6806 5.33813V8.68579C11.6809 9.10893 12.1393 9.37297 12.5058 9.16138L13.3486 8.67505C13.7245 8.45837 14.2047 8.58742 14.4218 8.96313C14.6389 9.33917 14.5107 9.82015 14.1347 10.0374L13.2929 10.5227C12.9262 10.7343 12.9263 11.2641 13.2929 11.4758L16.1914 13.1497C16.5673 13.3668 16.6964 13.8478 16.4795 14.2239C16.2624 14.5998 15.7813 14.7288 15.4052 14.512L12.5058 12.8372C12.1392 12.6254 11.6806 12.8903 11.6806 13.3137V16.6614C11.6806 17.0957 11.3278 17.4485 10.8935 17.4485C10.4594 17.4482 10.1074 17.0955 10.1074 16.6614V13.3147C10.1071 12.8916 9.64871 12.6275 9.2822 12.8391L6.38474 14.512C6.00864 14.729 5.52764 14.6 5.31052 14.2239C5.09341 13.8478 5.22251 13.3668 5.5986 13.1497L8.49704 11.4758C8.86365 11.2641 8.86369 10.7344 8.49704 10.5227L5.5986 8.84985C5.2225 8.63271 5.09337 8.15174 5.31052 7.77563C5.5277 7.39964 6.00868 7.27141 6.38474 7.48853L9.2822 9.16138C9.64877 9.37294 10.1072 9.108 10.1074 8.68481V5.33813C10.1075 4.90408 10.4595 4.55225 10.8935 4.552ZM15.4043 7.4895C15.7802 7.27245 16.2612 7.40086 16.4785 7.77661C16.6955 8.15254 16.5671 8.63354 16.1914 8.85083L16.1631 8.86743C15.787 9.08423 15.3059 8.95531 15.0888 8.57935C14.8718 8.2033 15.001 7.72228 15.3769 7.50513L15.4043 7.4895Z" fill="#FCFCFC"/>
<path d="M66.2842 4.35718H69V17.6424H66.2842V4.35718Z" fill="#2E3034"/>
<path d="M55.9167 4.35718H58.6324V15.0918H64.2658V17.6424H55.9167V4.35718Z" fill="#2E3034"/>
<path d="M47.0721 17.8993C45.7693 17.8993 44.5857 17.5996 43.5214 17.0002C42.4633 16.3947 41.6314 15.5659 41.0259 14.5138C40.4203 13.4618 40.1176 12.2904 40.1176 10.9998C40.1176 9.70924 40.4203 8.53792 41.0259 7.48587C41.6314 6.43382 42.4633 5.60808 43.5214 5.00865C44.5857 4.40311 45.7693 4.10034 47.0721 4.10034C48.3749 4.10034 49.5554 4.40311 50.6136 5.00865C51.6718 5.60808 52.5036 6.43382 53.1092 7.48587C53.7208 8.53792 54.0267 9.70924 54.0267 10.9998C54.0267 12.2904 53.7208 13.4618 53.1092 14.5138C52.5036 15.5659 51.6718 16.3947 50.6136 17.0002C49.5554 17.5996 48.3749 17.8993 47.0721 17.8993ZM47.0721 15.3304C47.8795 15.3304 48.6043 15.1469 49.2465 14.7799C49.8888 14.4068 50.3903 13.893 50.7512 13.2385C51.1121 12.5779 51.2925 11.8317 51.2925 10.9998C51.2925 10.168 51.1121 9.42482 50.7512 8.77035C50.3903 8.10976 49.8888 7.59597 49.2465 7.22897C48.6043 6.85586 47.8795 6.66931 47.0721 6.66931C46.2586 6.66931 45.5307 6.85586 44.8885 7.22897C44.2462 7.59597 43.7447 8.10976 43.3838 8.77035C43.029 9.42482 42.8517 10.168 42.8517 10.9998C42.8517 11.8317 43.029 12.5779 43.3838 13.2385C43.7447 13.893 44.2462 14.4068 44.8885 14.7799C45.5307 15.1469 46.2586 15.3304 47.0721 15.3304Z" fill="#2E3034"/>
<path d="M29.0526 4.35718H33.6034C34.6004 4.35718 35.4842 4.54373 36.2549 4.91684C37.0317 5.28384 37.6342 5.80069 38.0624 6.4674C38.4905 7.12799 38.7046 7.88644 38.7046 8.74276C38.7046 9.6052 38.4905 10.3698 38.0624 11.0365C37.6342 11.7032 37.0317 12.2231 36.2549 12.5962C35.4842 12.9632 34.6004 13.1467 33.6034 13.1467H31.7684V17.6424H29.0526V4.35718ZM33.6401 10.6695C34.3679 10.6695 34.9368 10.4982 35.3466 10.1557C35.7625 9.81317 35.9705 9.34219 35.9705 8.74276C35.9705 8.14334 35.7625 7.67542 35.3466 7.33901C34.9368 7.0026 34.3679 6.83439 33.6401 6.83439H31.7684V10.6695H33.6401Z" fill="#2E3034"/>
</svg>
