<svg width="344" height="154" viewBox="0 0 344 154" fill="none" xmlns="http://www.w3.org/2000/svg">
<path d="M293.411 27.9004H313.501V126.178H293.411V27.9004Z" fill="#2E3034"/>
<path d="M220.887 27.9004H240.976V107.31H282.649V126.178H220.887V27.9004Z" fill="#2E3034"/>
<path d="M159.629 128.078C149.991 128.078 141.236 125.861 133.363 121.427C125.535 116.947 119.381 110.816 114.902 103.034C110.422 95.2511 108.183 86.5863 108.183 77.0391C108.183 67.4919 110.422 58.827 114.902 51.0444C119.381 43.2619 125.535 37.1535 133.363 32.7192C141.236 28.2397 149.991 26 159.629 26C169.267 26 177.999 28.2397 185.827 32.7192C193.655 37.1535 199.809 43.2619 204.288 51.0444C208.813 58.827 211.075 67.4919 211.075 77.0391C211.075 86.5863 208.813 95.2511 204.288 103.034C199.809 110.816 193.655 116.947 185.827 121.427C177.999 125.861 169.267 128.078 159.629 128.078ZM159.629 109.074C165.602 109.074 170.963 107.717 175.714 105.002C180.465 102.242 184.176 98.4411 186.845 93.5996C189.515 88.7129 190.85 83.1927 190.85 77.0391C190.85 70.8854 189.515 65.3879 186.845 60.5464C184.176 55.6597 180.465 51.8589 175.714 49.144C170.963 46.384 165.602 45.0039 159.629 45.0039C153.611 45.0039 148.227 46.384 143.476 49.144C138.725 51.8589 135.014 55.6597 132.345 60.5464C129.72 65.3879 128.408 70.8854 128.408 77.0391C128.408 83.1927 129.72 88.7129 132.345 93.5996C135.014 98.4411 138.725 102.242 143.476 105.002C148.227 107.717 153.611 109.074 159.629 109.074Z" fill="#2E3034"/>
<path d="M30.5 27.9004H64.1641C71.5394 27.9004 78.0776 29.2804 83.7788 32.0405C89.5252 34.7554 93.9821 38.5788 97.1494 43.5107C100.317 48.3975 101.9 54.0081 101.9 60.3428C101.9 66.7227 100.317 72.3786 97.1494 77.3105C93.9821 82.2425 89.5252 86.0885 83.7788 88.8486C78.0776 91.5635 71.5394 92.9209 64.1641 92.9209H50.5898V126.178H30.5V27.9004ZM64.4355 74.5957C69.82 74.5957 74.028 73.3288 77.0596 70.7949C80.1364 68.2611 81.6748 64.777 81.6748 60.3428C81.6748 55.9085 80.1364 52.4471 77.0596 49.9585C74.028 47.4699 69.82 46.2256 64.4355 46.2256H50.5898V74.5957H64.4355Z" fill="#2E3034"/>
</svg>
