<svg width="41" height="42" viewBox="0 0 41 42" fill="none" xmlns="http://www.w3.org/2000/svg">
<path fill-rule="evenodd" clip-rule="evenodd" d="M20.4082 1.70581C19.1263 1.70581 18.0872 2.74494 18.0872 4.02677V13.071C18.0872 14.691 16.3336 15.7034 14.9307 14.8935L7.09966 10.3722C5.98956 9.7313 4.57008 10.1116 3.92916 11.2217C3.28824 12.3318 3.66859 13.7513 4.77869 14.3922L12.6115 18.9145C14.0144 19.7245 14.0144 21.7494 12.6115 22.5594L4.77854 27.0818C3.66844 27.7227 3.2881 29.1422 3.92901 30.2523C4.56993 31.3624 5.98941 31.7427 7.09951 31.1018L14.9307 26.5805C16.3336 25.7705 18.0872 26.783 18.0872 28.4029V37.4486C18.0872 38.7305 19.1263 39.7696 20.4082 39.7696C21.69 39.7696 22.7291 38.7305 22.7291 37.4486V28.4008C22.7291 26.7808 24.4827 25.7684 25.8856 26.5783L33.7229 31.1032C34.833 31.7441 36.2525 31.3637 36.8934 30.2536C37.5343 29.1435 37.1539 27.7241 36.0438 27.0832L28.2084 22.5594C26.8055 21.7494 26.8055 19.7245 28.2084 18.9145L29.9735 17.8955C31.0836 17.2546 31.4639 15.8351 30.823 14.725C30.1821 13.6149 28.7626 13.2346 27.6525 13.8755L25.8856 14.8956C24.4827 15.7055 22.7291 14.6931 22.7291 13.0732V4.02677C22.7291 2.74494 21.69 1.70581 20.4082 1.70581ZM36.8928 11.2265C37.5338 12.3366 37.1534 13.756 36.0433 14.397L35.9622 14.4438C34.8521 15.0847 33.4326 14.7043 32.7917 13.5942C32.1508 12.4841 32.5311 11.0647 33.6412 10.4238L33.7224 10.3769C34.8325 9.73601 36.2519 10.1164 36.8928 11.2265Z" fill="url(#paint0_linear_7_460)"/>
<defs>
<linearGradient id="paint0_linear_7_460" x1="11.7574" y1="7.73522" x2="28.0368" y2="35.772" gradientUnits="userSpaceOnUse">
<stop stop-color="#00B3FF"/>
<stop offset="0.378461" stop-color="#0059FF"/>
<stop offset="0.728599" stop-color="#003599"/>
<stop offset="1" stop-color="#4D0099"/>
</linearGradient>
</defs>
</svg>
