<svg width="40" height="40" viewBox="0 0 40 40" fill="none" xmlns="http://www.w3.org/2000/svg">
<rect width="40" height="40" rx="12" fill="#0059FF"/>
<path fill-rule="evenodd" clip-rule="evenodd" d="M19.9986 8.16296C19.2014 8.16296 18.5551 8.80926 18.5551 9.6065V15.75C18.5551 16.5272 17.7138 17.0129 17.0407 16.6243L11.7208 13.5529C11.0304 13.1543 10.1475 13.3909 9.74893 14.0813C9.3503 14.7717 9.58686 15.6546 10.2773 16.0532L15.5985 19.1254C16.2715 19.514 16.2715 20.4854 15.5985 20.874L10.2772 23.9463C9.58675 24.3449 9.35019 25.2277 9.74881 25.9182C10.1474 26.6086 11.0303 26.8452 11.7207 26.4466L17.0407 23.3751C17.7138 22.9865 18.5551 23.4722 18.5551 24.2494V30.3935C18.5551 31.1907 19.2014 31.837 19.9986 31.837C20.7959 31.837 21.4422 31.1907 21.4422 30.3935V24.2479C21.4422 23.4707 22.2835 22.985 22.9565 23.3736L28.2794 26.4467C28.9698 26.8453 29.8526 26.6088 30.2513 25.9183C30.6499 25.2279 30.4133 24.345 29.7229 23.9464L24.4014 20.874C23.7283 20.4854 23.7283 19.514 24.4014 19.1254L25.9474 18.2328C26.6378 17.8342 26.8744 16.9513 26.4757 16.2609C26.0771 15.5705 25.1942 15.3339 24.5038 15.7325L22.9565 16.6258C22.2835 17.0144 21.4422 16.5287 21.4422 15.7515V9.60651C21.4422 8.80926 20.7959 8.16296 19.9986 8.16296ZM30.2509 14.0835C30.6495 14.7739 30.4129 15.6567 29.7225 16.0554L29.672 16.0845C28.9816 16.4831 28.0988 16.2466 27.7001 15.5561C27.3015 14.8657 27.5381 13.9828 28.2285 13.5842L28.2789 13.5551C28.9694 13.1565 29.8522 13.393 30.2509 14.0835Z" fill="#FCFCFC"/>
</svg>
