<svg width="31" height="30" viewBox="0 0 31 30" fill="none" xmlns="http://www.w3.org/2000/svg">
<rect x="0.854492" width="30" height="30" rx="15" fill="#0059FF"/>
<path fill-rule="evenodd" clip-rule="evenodd" d="M15.853 6.12231C15.255 6.12231 14.7703 6.60704 14.7703 7.20497V11.8125C14.7703 12.3954 14.1393 12.7597 13.6345 12.4683L9.64471 10.1648C9.12688 9.8658 8.46474 10.0432 8.16577 10.561C7.8668 11.0789 8.04422 11.741 8.56205 12.04L12.553 14.3442C13.0578 14.6356 13.0578 15.3642 12.553 15.6557L8.56202 17.9598C8.04419 18.2588 7.86677 18.921 8.16574 19.4388C8.4647 19.9566 9.12685 20.134 9.64467 19.8351L13.6345 17.5315C14.1393 17.2401 14.7703 17.6044 14.7703 18.1873V22.7952C14.7703 23.3931 15.255 23.8779 15.853 23.8779C16.4509 23.8779 16.9356 23.3931 16.9356 22.7952V18.186C16.9356 17.6031 17.5666 17.2388 18.0714 17.5302L22.0636 19.8351C22.5814 20.1341 23.2436 19.9567 23.5425 19.4388C23.8415 18.921 23.6641 18.2589 23.1462 17.9599L19.1552 15.6557C18.6504 15.3642 18.6504 14.6356 19.1552 14.3442L20.3146 13.6748C20.8325 13.3758 21.0099 12.7136 20.7109 12.1958C20.412 11.678 19.7498 11.5006 19.232 11.7995L18.0714 12.4696C17.5666 12.761 16.9356 12.3967 16.9356 11.8138V7.20497C16.9356 6.60704 16.4509 6.12231 15.853 6.12231ZM23.5422 10.5627C23.8411 11.0805 23.6637 11.7427 23.1459 12.0416L23.1081 12.0635C22.5902 12.3624 21.9281 12.185 21.6291 11.6672C21.3302 11.1494 21.5076 10.4872 22.0254 10.1883L22.0632 10.1664C22.5811 9.86745 23.2432 10.0449 23.5422 10.5627Z" fill="#FCFCFC"/>
</svg>
