<svg width="30" height="30" viewBox="0 0 30 30" fill="none" xmlns="http://www.w3.org/2000/svg">
<rect width="30" height="30" rx="15" fill="#0059FF"/>
<path fill-rule="evenodd" clip-rule="evenodd" d="M14.9991 4.65173C14.3022 4.65173 13.7372 5.21674 13.7372 5.91372V11.0646C13.7372 11.8418 12.8958 12.3275 12.2228 11.9389L7.76247 9.36375C7.15887 9.01526 6.38705 9.22207 6.03856 9.82567C5.69007 10.4293 5.89688 11.2011 6.50048 11.5496L10.9619 14.1254C11.635 14.514 11.635 15.4855 10.9619 15.8741L6.50034 18.45C5.89675 18.7985 5.68994 19.5703 6.03843 20.1739C6.38691 20.7775 7.15873 20.9843 7.76233 20.6358L12.2228 18.0605C12.8958 17.672 13.7372 18.1577 13.7372 18.9349V24.0863C13.7372 24.7833 14.3022 25.3483 14.9991 25.3483C15.6961 25.3483 16.2611 24.7833 16.2611 24.0863V18.9335C16.2611 18.1564 17.1025 17.6706 17.7755 18.0592L22.2384 20.6359C22.842 20.9844 23.6138 20.7775 23.9623 20.174C24.3108 19.5704 24.104 18.7985 23.5004 18.45L19.0387 15.8741C18.3656 15.4855 18.3656 14.514 19.0387 14.1254L20.1997 13.4551C20.8033 13.1066 21.0101 12.3348 20.6616 11.7312C20.3131 11.1276 19.5413 10.9208 18.9377 11.2693L17.7755 11.9402C17.1025 12.3288 16.2611 11.8431 16.2611 11.0659V5.91372C16.2611 5.21674 15.6961 4.65173 14.9991 4.65173ZM23.9619 9.82762C24.3104 10.4312 24.1036 11.203 23.5 11.5515L23.4559 11.577C22.8523 11.9255 22.0804 11.7187 21.732 11.1151C21.3835 10.5115 21.5903 9.73965 22.1939 9.39116L22.238 9.3657C22.8416 9.01721 23.6134 9.22402 23.9619 9.82762Z" fill="#FEFEFE"/>
</svg>
