<svg width="550" height="448" viewBox="0 0 550 448" fill="none" xmlns="http://www.w3.org/2000/svg">
<g clip-path="url(#clip0_264_5751)">
<g filter="url(#filter0_f_264_5751)">
<ellipse cx="244.167" cy="241.721" rx="70.2769" ry="60.3805" fill="#00FFFF"/>
</g>
<g filter="url(#filter1_f_264_5751)">
<ellipse cx="312.401" cy="228.38" rx="70.2769" ry="60.3805" fill="#0047FF"/>
</g>
<g filter="url(#filter2_f_264_5751)">
<ellipse cx="281.473" cy="282.869" rx="70.2769" ry="60.3805" fill="#B25BD2"/>
</g>
<rect x="222.609" y="194" width="112.04" height="112.04" rx="22.1279" fill="white" fill-opacity="0.22"/>
<path fill-rule="evenodd" clip-rule="evenodd" d="M278.628 217.308C276.425 217.308 274.639 219.094 274.639 221.297V237.581C274.639 240.038 271.979 241.573 269.852 240.345L255.749 232.203C253.841 231.101 251.401 231.755 250.3 233.663C249.198 235.571 249.852 238.011 251.76 239.113L265.864 247.256C267.992 248.484 267.992 251.555 265.864 252.784L251.761 260.926C249.853 262.028 249.199 264.467 250.301 266.375C251.403 268.283 253.842 268.937 255.751 267.836L269.852 259.694C271.979 258.466 274.639 260.001 274.639 262.458V278.743C274.639 280.946 276.425 282.732 278.628 282.732C280.831 282.732 282.618 280.946 282.618 278.743V262.456C282.618 259.999 285.277 258.464 287.405 259.692L301.51 267.836C303.418 268.937 305.858 268.284 306.959 266.375C308.061 264.467 307.407 262.028 305.499 260.926L291.396 252.784C289.268 251.555 289.268 248.484 291.396 247.256L295.067 245.136C296.975 244.035 297.628 241.595 296.527 239.687C295.425 237.779 292.985 237.125 291.077 238.227L287.405 240.347C285.277 241.576 282.618 240.04 282.618 237.583V221.297C282.618 219.094 280.831 217.308 278.628 217.308ZM306.958 233.666C308.06 235.574 307.406 238.014 305.498 239.115L305.359 239.196C303.45 240.298 301.011 239.644 299.909 237.736C298.807 235.828 299.461 233.388 301.369 232.286L301.509 232.206C303.417 231.104 305.856 231.758 306.958 233.666Z" fill="#FEFEFE"/>
</g>
<defs>
<filter id="filter0_f_264_5751" x="13.3001" y="20.7505" width="461.733" height="441.94" filterUnits="userSpaceOnUse" color-interpolation-filters="sRGB">
<feFlood flood-opacity="0" result="BackgroundImageFix"/>
<feBlend mode="normal" in="SourceGraphic" in2="BackgroundImageFix" result="shape"/>
<feGaussianBlur stdDeviation="80.2948" result="effect1_foregroundBlur_264_5751"/>
</filter>
<filter id="filter1_f_264_5751" x="41.4674" y="-32.6566" width="541.867" height="522.074" filterUnits="userSpaceOnUse" color-interpolation-filters="sRGB">
<feFlood flood-opacity="0" result="BackgroundImageFix"/>
<feBlend mode="normal" in="SourceGraphic" in2="BackgroundImageFix" result="shape"/>
<feGaussianBlur stdDeviation="100.328" result="effect1_foregroundBlur_264_5751"/>
</filter>
<filter id="filter2_f_264_5751" x="50.6068" y="61.8994" width="461.733" height="441.94" filterUnits="userSpaceOnUse" color-interpolation-filters="sRGB">
<feFlood flood-opacity="0" result="BackgroundImageFix"/>
<feBlend mode="normal" in="SourceGraphic" in2="BackgroundImageFix" result="shape"/>
<feGaussianBlur stdDeviation="80.2948" result="effect1_foregroundBlur_264_5751"/>
</filter>
<clipPath id="clip0_264_5751">
<rect width="550" height="448" fill="white"/>
</clipPath>
</defs>
</svg>
