<svg width="25" height="24" viewBox="0 0 25 24" fill="none" xmlns="http://www.w3.org/2000/svg">
<g id="icon/check/on">
<mask id="mask0_216_435" style="mask-type:alpha" maskUnits="userSpaceOnUse" x="0" y="0" width="25" height="24">
<rect id="Bounding box" x="0.5" width="24" height="24" fill="#D9D9D9"/>
</mask>
<g mask="url(#mask0_216_435)">
<circle id="Ellipse 1554" cx="12.5" cy="12.5" r="7" fill="#FAFDFB"/>
<path id="check_circle" d="M11.0808 14.1462L8.75765 11.8231C8.6192 11.6846 8.44517 11.6138 8.23555 11.6106C8.02593 11.6074 7.84869 11.6782 7.70382 11.8231C7.55896 11.9679 7.48653 12.1436 7.48653 12.35C7.48653 12.5564 7.55896 12.732 7.70382 12.8769L10.4481 15.6211C10.6288 15.8019 10.8397 15.8923 11.0808 15.8923C11.3218 15.8923 11.5327 15.8019 11.7134 15.6211L17.2769 10.0577C17.4153 9.9192 17.4862 9.74517 17.4894 9.53555C17.4926 9.32593 17.4218 9.14869 17.2769 9.00383C17.132 8.85896 16.9564 8.78653 16.75 8.78653C16.5436 8.78653 16.3679 8.85896 16.2231 9.00383L11.0808 14.1462ZM12.5016 21.5C11.1877 21.5 9.95268 21.2506 8.79655 20.752C7.6404 20.2533 6.63472 19.5765 5.7795 18.7217C4.92427 17.8669 4.24721 16.8616 3.74833 15.706C3.24944 14.5504 3 13.3156 3 12.0017C3 10.6877 3.24933 9.45268 3.748 8.29655C4.24667 7.1404 4.92342 6.13472 5.77825 5.2795C6.6331 4.42427 7.63834 3.74721 8.79398 3.24833C9.94959 2.74944 11.1844 2.5 12.4983 2.5C13.8122 2.5 15.0473 2.74933 16.2034 3.248C17.3596 3.74667 18.3652 4.42342 19.2205 5.27825C20.0757 6.1331 20.7527 7.13834 21.2516 8.29398C21.7505 9.44959 22 10.6844 22 11.9983C22 13.3122 21.7506 14.5473 21.252 15.7034C20.7533 16.8596 20.0765 17.8652 19.2217 18.7205C18.3669 19.5757 17.3616 20.2527 16.206 20.7516C15.0504 21.2505 13.8156 21.5 12.5016 21.5Z" fill="#0059FF"/>
</g>
</g>
</svg>
